<?xml version="1.0" standalone="no"?>
<!DOCTYPE svg PUBLIC "-//W3C//DTD SVG 1.0//EN" "http://www.w3.org/TR/2001/REC-SVG-20010904/DTD/svg10.dtd">
<svg xmlns="http://www.w3.org/2000/svg" xmlns:xlink="http://www.w3.org/1999/xlink" id="body_1" width="51" height="38">

<g transform="matrix(0.07421875 0 0 0.07421875 6.5 -0)">
    <path d="M310.028 451.144C 304.01703 451.144 297.987 449.752 292.37802 446.948L292.37802 446.948L143.18202 372.345L43.52202 372.345C 19.523 372.344 0 352.821 0 328.822L0 328.822L0 183.175C 0 159.17801 19.523 139.653 43.522 139.653L43.522 139.653L143.182 139.653L292.378 65.053C 304.685 58.901 319.021 59.545002 330.724 66.777C 342.429 74.011 349.417 86.544 349.417 100.304L349.417 100.304L349.417 286.655C 349.417 295.12 342.555 301.982 334.09 301.982C 325.625 301.982 318.763 295.12 318.763 286.655L318.763 286.655L318.763 100.304C 318.763 95.896 315.857 93.625 314.609 92.854004C 313.36002 92.082 310.02902 90.5 306.087 92.471L306.087 92.471L153.656 168.69C 151.52701 169.754 149.182 170.309 146.802 170.309L146.802 170.309L43.522 170.309C 36.427 170.309 30.654 176.08101 30.654 183.177L30.654 183.177L30.654 328.825C 30.654 335.92 36.428 341.69302 43.522 341.69302L43.522 341.69302L146.8 341.69302C 149.18001 341.69302 151.52701 342.24603 153.654 343.312L153.654 343.312L306.08502 419.532C 310.02902 421.50302 313.35803 419.92102 314.60703 419.14902C 315.85602 418.37802 318.76102 416.10703 318.76102 411.699L318.76102 411.699L318.76102 378.618C 318.76102 370.153 325.62302 363.29102 334.088 363.29102C 342.553 363.29102 349.415 370.153 349.415 378.618L349.415 378.618L349.415 411.699C 349.415 425.459 342.427 437.992 330.72202 445.226C 324.354 449.159 317.204 451.144 310.028 451.144z" stroke="none" fill="#2D527C" fill-rule="nonzero" />
    <path d="M142.832 154.979L43.522003 154.979C 27.950005 154.979 15.3270035 167.602 15.3270035 183.17401L15.3270035 183.17401L15.3270035 255.99802L15.3270035 328.82202C 15.3270035 344.394 27.950005 357.01703 43.522003 357.01703L43.522003 357.01703L142.832 357.01703L142.832 154.979z" stroke="none" fill="#CEE8FA" fill-rule="nonzero" />
	<g>
        <path d="M142.832 372.344L43.522003 372.344C 19.523 372.344 0 352.821 0 328.822L0 328.822L0 183.175C 0 159.17801 19.523 139.653 43.522 139.653L43.522 139.653L142.832 139.653C 151.297 139.653 158.159 146.515 158.159 154.98L158.159 154.98L158.159 357.018C 158.159 365.483 151.297 372.344 142.832 372.344zM43.522 170.308C 36.427 170.308 30.654 176.08 30.654 183.176L30.654 183.176L30.654 328.82397C 30.654 335.91898 36.428 341.692 43.522 341.692L43.522 341.692L127.505005 341.692L127.505005 170.308L43.522 170.308z" stroke="none" fill="#2D527C" fill-rule="nonzero" />
        <path d="M266.668 332.634C 258.203 332.634 251.341 325.772 251.341 317.307L251.341 317.307L251.341 95.044C 251.341 86.578995 258.203 79.716995 266.668 79.716995C 275.133 79.716995 281.995 86.578995 281.995 95.04399L281.995 95.04399L281.995 317.307C 281.995 325.772 275.133 332.634 266.668 332.634z" stroke="none" fill="#2D527C" fill-rule="nonzero" />
        <path d="M496.673 271.327L404.502 271.327C 396.03702 271.327 389.17502 264.465 389.17502 256C 389.17502 247.535 396.03702 240.673 404.502 240.673L404.502 240.673L496.673 240.673C 505.138 240.673 512 247.535 512 256C 512 264.465 505.138 271.327 496.673 271.327z" stroke="none" fill="#2D527C" fill-rule="nonzero" />
	</g>
	<g>
	</g>
	<g>
	</g>
	<g>
	</g>
	<g>
	</g>
	<g>
	</g>
	<g>
	</g>
	<g>
	</g>
	<g>
	</g>
	<g>
	</g>
	<g>
	</g>
	<g>
	</g>
	<g>
	</g>
	<g>
	</g>
	<g>
	</g>
	<g>
	</g>
</g>
</svg>