<?xml version="1.0" standalone="no"?>
<!DOCTYPE svg PUBLIC "-//W3C//DTD SVG 1.0//EN" "http://www.w3.org/TR/2001/REC-SVG-20010904/DTD/svg10.dtd">
<svg xmlns="http://www.w3.org/2000/svg" xmlns:xlink="http://www.w3.org/1999/xlink" id="body_1" width="51" height="38">

<g transform="matrix(0.074218616 0 0 0.074218616 6.5000014 -0)">
    <path d="M302.542 446.433C 296.676 446.433 290.793 445.075 285.318 442.338L285.318 442.338L139.726 369.536L42.471 369.536C 19.052 369.536 0 350.484 0 327.065L0 327.065L0 184.934C 0 161.515 19.052 142.46301 42.471 142.46301L42.471 142.46301L139.726 142.46301L285.318 69.66401C 297.328 63.65701 311.317 64.28901 322.73798 71.34701C 334.15997 78.407005 340.97897 90.63701 340.97897 104.065L340.97897 104.065L340.97897 285.91602C 340.97897 294.177 334.28098 300.87302 326.02197 300.87302C 317.76297 300.87302 311.06497 294.177 311.06497 285.91602L311.06497 285.91602L311.06497 104.065C 311.06497 99.763 308.22897 97.547005 307.00998 96.795006C 305.791 96.04101 302.53598 94.49801 298.69598 96.421005L298.69598 96.421005L149.94398 170.79901C 147.86699 171.837 145.57799 172.378 143.25499 172.378L143.25499 172.378L42.471 172.378C 35.548 172.378 29.913002 178.011 29.913002 184.936L29.913002 184.936L29.913002 327.06702C 29.913002 333.99002 35.547 339.62503 42.471 339.62503L42.471 339.62503L143.257 339.62503C 145.58 339.62503 147.87001 340.16504 149.946 341.20404L149.946 341.20404L298.698 415.58405C 302.543 417.50903 305.79498 415.96405 307.012 415.21005C 308.231 414.45804 311.067 412.24106 311.067 407.94006L311.067 407.94006L311.067 375.65707C 311.067 367.3961 317.76498 360.70007 326.024 360.70007C 334.283 360.70007 340.981 367.3961 340.981 375.65707L340.981 375.65707L340.981 407.94006C 340.981 421.36807 334.16098 433.59805 322.74 440.65805C 316.522 444.496 309.544 446.433 302.542 446.433z" stroke="none" fill="#2D527C" fill-rule="nonzero" />
    <path d="M139.383 157.42L42.471 157.42C 27.275002 157.42 14.957001 169.73799 14.957001 184.93399L14.957001 184.93399L14.957001 256L14.957001 327.065C 14.957001 342.26102 27.275002 354.579 42.471 354.579L42.471 354.579L139.383 354.579L139.383 157.42z" stroke="none" fill="#CEE8FA" fill-rule="nonzero" />
	<g>
        <path d="M139.383 369.536L42.471 369.536C 19.052 369.536 0 350.484 0 327.065L0 327.065L0 184.934C 0 161.515 19.052 142.46301 42.471 142.46301L42.471 142.46301L139.383 142.46301C 147.644 142.46301 154.34 149.15901 154.34 157.42001L154.34 157.42001L154.34 354.58002C 154.34 362.84 147.644 369.536 139.383 369.536zM42.471 172.377C 35.548 172.377 29.913002 178.01 29.913002 184.935L29.913002 184.935L29.913002 327.06598C 29.913002 333.98898 35.547 339.624 42.471 339.624L42.471 339.624L124.426 339.624L124.426 172.377L42.471 172.377z" stroke="none" fill="#2D527C" fill-rule="nonzero" />
        <path d="M260.23 330.785C 251.96901 330.785 245.27301 324.089 245.27301 315.828L245.27301 315.828L245.27301 98.932C 245.27301 90.671 251.96901 83.975 260.23 83.975C 268.489 83.975 275.187 90.671 275.187 98.932L275.187 98.932L275.187 315.828C 275.187 324.089 268.49 330.785 260.23 330.785z" stroke="none" fill="#2D527C" fill-rule="nonzero" />
        <path d="M412.289 313.335C 408.46 313.335 404.634 311.875 401.713 308.95398C 395.872 303.11298 395.872 293.64297 401.713 287.80197L401.713 287.80197L486.467 203.04697C 492.30902 197.20596 501.777 197.20497 507.62 203.04697C 513.461 208.88797 513.461 218.35797 507.62 224.19897L507.62 224.19897L422.866 308.95398C 419.944 311.875 416.117 313.335 412.289 313.335z" stroke="none" fill="#2D527C" fill-rule="nonzero" />
        <path d="M497.043 313.335C 493.214 313.335 489.388 311.875 486.467 308.95398L486.467 308.95398L401.713 224.19897C 395.872 218.35797 395.872 208.88797 401.713 203.04697C 407.557 197.20596 417.02402 197.20796 422.86603 203.04697L422.86603 203.04697L507.62003 287.80197C 513.461 293.64297 513.461 303.11298 507.62003 308.95398C 504.698 311.875 500.869 313.335 497.043 313.335z" stroke="none" fill="#2D527C" fill-rule="nonzero" />
	</g>
	<g>
	</g>
	<g>
	</g>
	<g>
	</g>
	<g>
	</g>
	<g>
	</g>
	<g>
	</g>
	<g>
	</g>
	<g>
	</g>
	<g>
	</g>
	<g>
	</g>
	<g>
	</g>
	<g>
	</g>
	<g>
	</g>
	<g>
	</g>
	<g>
	</g>
</g>
</svg>